<svg width="192" height="92" viewBox="0 0 192 92" fill="none" xmlns="http://www.w3.org/2000/svg">
<g clip-path="url(#clip0_3759_32610)">
<path d="M69.2819 21.4148H62.0786V7.43359H86.2291V21.4148H79.0257V37.0929H69.2795V21.4148H69.2819Z" fill="black" fill-opacity="0.6"/>
<path d="M96.3581 21.4148H89.1548V7.43359H113.305V21.4148H106.102V37.0929H96.3557V21.4148H96.3581Z" fill="black" fill-opacity="0.6"/>
<path d="M116.228 7.43359H125.974V37.0929H116.228V7.43359Z" fill="black" fill-opacity="0.6"/>
<path d="M128.897 7.43359H135.974L143.896 14.3812V7.43359H153.643V37.0929H146.566L138.643 29.7199V37.0929H128.897V7.43359Z" fill="black" fill-opacity="0.6"/>
<path d="M168.133 18.2395H174.633C179.21 18.2395 181.667 20.4001 181.667 24.3841V29.2381C181.667 35.0003 178.723 38.2195 169.442 38.2195C160.162 38.2195 156.565 34.5175 156.565 27.0274V17.7018C156.565 10.3073 160.42 5.77596 171.648 6.09382C176.134 6.22049 177.607 6.64351 180.276 7.83132L180.257 16.4566H166.309V28.1531H172.631V26.2889H168.13V18.2395H168.133Z" fill="black" fill-opacity="0.6"/>
<path d="M97.9493 71.3248C96.1281 73.3156 91.3697 74.4604 86.2027 74.4604C75.7371 74.4604 72.6875 70.1848 72.6875 62.4055L72.7305 54.1076C72.7305 47.3273 75.9498 42.5498 86.5444 42.5498C91.3315 42.5498 96.0469 43.4819 97.954 44.966V56.6816H82.4576V59.6045H97.954V71.3248H97.9493Z" fill="black" fill-opacity="0.6"/>
<path d="M128.897 43.6729H135.973L143.896 50.6204V43.6729H153.642V73.3321H146.566L138.643 65.9591V73.3321H128.899V43.6729H128.897Z" fill="black" fill-opacity="0.6"/>
<path d="M100.872 43.6727H125.974V52.8239H110.618V54.4658H124.576V62.5342H110.618V64.1761H125.974V73.3272H100.872V43.668V43.6727Z" fill="black" fill-opacity="0.6"/>
<path d="M156.565 43.6727H181.667V52.8239H166.312V54.4658H180.269V62.5342H166.312V64.1761H181.667V73.3272H156.565V43.668V43.6727Z" fill="black" fill-opacity="0.6"/>
<path d="M45.569 51.4931C45.569 44.6316 49.8064 42.4209 58.6181 42.4209C62.9391 42.4209 66.8563 43.1355 69.4398 44.2803V52.6571H55.3128V54.4376L63.2355 54.7339C67.6832 54.9036 69.8031 58.13 69.7601 62.5371L69.717 66.2726C69.717 72.7374 65.1833 74.4582 56.8782 74.4582C52.5142 74.4582 48.8695 73.8224 45.9036 72.551V64.3487H60.0138V62.7426L52.1748 62.4893C47.7271 62.3196 45.5642 58.5817 45.5642 53.9763V51.4955L45.569 51.4931Z" fill="black" fill-opacity="0.6"/>
<path d="M191.172 66.75H184.59V73.3319H191.172V66.75Z" fill="#EA5CE6"/>
<path d="M19.1481 8.03586C19.1481 8.03586 19.1338 8.03108 19.1218 8.02869C17.848 7.6224 16.3351 7.43359 14.5666 7.43359H0.150391V37.0929H9.89421V29.7247H14.5666C17.8958 29.7247 20.3024 29.0579 21.9348 27.557C23.842 25.8027 24.6832 22.9037 24.6832 18.597C24.6832 12.5672 23.0294 9.29297 19.1481 8.03586ZM14.9346 17.7701V20.4708H9.88705V17.5479H14.9346V17.7701Z" fill="black" fill-opacity="0.6"/>
<path d="M52.574 7.43652V19.4866C52.574 27.622 49.0129 30.9273 39.9455 30.9273C37.7849 30.9273 35.9399 30.7409 34.3793 30.3418C35.5575 35.4109 39.2787 37.4758 46.5298 37.4758C55.5972 37.4758 59.1535 34.2135 59.1535 26.0781V7.43652H52.5716H52.574Z" fill="#FBDC1C"/>
<path d="M52.5739 7.43675V0.847656H27.3623V19.4869C27.3623 25.7079 29.4224 29.0873 34.3792 30.342C34.0852 29.1016 33.9466 27.682 33.9466 26.076V7.43675H52.5715H52.5739Z" fill="#7ADDF0"/>
<path d="M52.5743 7.43652V19.4866C52.5743 27.622 49.0133 30.9273 39.9458 30.9273C37.7853 30.9273 35.9402 30.7409 34.3796 30.3418C34.0856 29.1014 33.947 27.6818 33.947 26.0757V7.43652H52.5719H52.5743Z" fill="#EA5CE6"/>
<path d="M52.574 7.43652V19.4866C52.574 27.622 49.0129 30.9273 39.9455 30.9273C37.7849 30.9273 35.9399 30.7409 34.3793 30.3418C35.5575 35.4109 39.2787 37.4758 46.5298 37.4758C55.5972 37.4758 59.1535 34.2135 59.1535 26.0781V7.43652H52.5716H52.574Z" fill="#FBDC1C"/>
<path d="M52.5739 7.43675V0.847656H27.3623V19.4869C27.3623 25.7079 29.4224 29.0873 34.3792 30.342C34.0852 29.1016 33.9466 27.682 33.9466 26.076V7.43675H52.5715H52.5739Z" fill="#7ADDF0"/>
<path d="M52.5743 7.43652V19.4866C52.5743 27.622 49.0133 30.9273 39.9458 30.9273C37.7853 30.9273 35.9402 30.7409 34.3796 30.3418C34.0856 29.1014 33.947 27.6818 33.947 26.0757V7.43652H52.5719H52.5743Z" fill="#EA5CE6"/>
</g>
<path d="M50.9882 84.8535C50.9882 85.5742 50.8564 86.1939 50.5927 86.7124C50.329 87.2288 49.9676 87.6265 49.5084 87.9055C49.0513 88.1824 48.5317 88.3208 47.9494 88.3208C47.365 88.3208 46.8431 88.1824 46.3839 87.9055C45.9269 87.6265 45.5665 87.2277 45.3028 86.7091C45.0392 86.1906 44.9073 85.572 44.9073 84.8535C44.9073 84.1329 45.0392 83.5143 45.3028 82.998C45.5665 82.4794 45.9269 82.0817 46.3839 81.8049C46.8431 81.5258 47.365 81.3863 47.9494 81.3863C48.5317 81.3863 49.0513 81.5258 49.5084 81.8049C49.9676 82.0817 50.329 82.4794 50.5927 82.998C50.8564 83.5143 50.9882 84.1329 50.9882 84.8535ZM49.9797 84.8535C49.9797 84.3042 49.8907 83.8417 49.7127 83.466C49.5369 83.0881 49.2952 82.8024 48.9876 82.6091C48.6822 82.4135 48.3361 82.3157 47.9494 82.3157C47.5605 82.3157 47.2134 82.4135 46.9079 82.6091C46.6025 82.8024 46.3608 83.0881 46.1828 83.466C46.0071 83.8417 45.9192 84.3042 45.9192 84.8535C45.9192 85.4029 46.0071 85.8665 46.1828 86.2444C46.3608 86.6201 46.6025 86.9058 46.9079 87.1013C47.2134 87.2947 47.5605 87.3914 47.9494 87.3914C48.3361 87.3914 48.6822 87.2947 48.9876 87.1013C49.2952 86.9058 49.5369 86.6201 49.7127 86.2444C49.8907 85.8665 49.9797 85.4029 49.9797 84.8535ZM54.3097 83.1661V83.9571H51.4489V83.1661H54.3097ZM52.2333 88.2285V82.5794C52.2333 82.263 52.3025 82.0004 52.4409 81.7917C52.5794 81.5808 52.7628 81.4237 52.9913 81.3204C53.2199 81.2149 53.4681 81.1622 53.7362 81.1622C53.934 81.1622 54.1032 81.1787 54.2438 81.2116C54.3844 81.2424 54.4888 81.2709 54.5569 81.2973L54.3262 82.0949C54.28 82.0817 54.2207 82.0663 54.1482 82.0488C54.0757 82.029 53.9878 82.0191 53.8845 82.0191C53.645 82.0191 53.4736 82.0784 53.3704 82.1971C53.2693 82.3157 53.2188 82.4871 53.2188 82.7112V88.2285H52.2333ZM57.4573 83.1661V83.9571H54.5965V83.1661H57.4573ZM55.3809 88.2285V82.5794C55.3809 82.263 55.4501 82.0004 55.5886 81.7917C55.727 81.5808 55.9105 81.4237 56.139 81.3204C56.3675 81.2149 56.6158 81.1622 56.8838 81.1622C57.0816 81.1622 57.2508 81.1787 57.3914 81.2116C57.532 81.2424 57.6364 81.2709 57.7045 81.2973L57.4738 82.0949C57.4276 82.0817 57.3683 82.0663 57.2958 82.0488C57.2233 82.029 57.1354 82.0191 57.0321 82.0191C56.7926 82.0191 56.6213 82.0784 56.518 82.1971C56.4169 82.3157 56.3664 82.4871 56.3664 82.7112V88.2285H55.3809ZM60.9428 84.9491V85.8028H57.9501V84.9491H60.9428ZM62.0568 88.2285V81.4786H63.0423V83.9867H63.1016C63.1587 83.8813 63.2411 83.7593 63.3488 83.6209C63.4565 83.4825 63.6059 83.3616 63.797 83.2583C63.9882 83.1529 64.2409 83.1001 64.5551 83.1001C64.9638 83.1001 65.3285 83.2034 65.6493 83.41C65.9701 83.6165 66.2217 83.9142 66.4041 84.3031C66.5886 84.6921 66.6809 85.1601 66.6809 85.7072C66.6809 86.2543 66.5897 86.7234 66.4074 87.1145C66.225 87.5034 65.9745 87.8033 65.6559 88.0143C65.3373 88.223 64.9737 88.3274 64.565 88.3274C64.2574 88.3274 64.0058 88.2758 63.8102 88.1725C63.6169 88.0692 63.4653 87.9484 63.3554 87.8099C63.2455 87.6715 63.1609 87.5485 63.1016 87.4408H63.0192V88.2285H62.0568ZM63.0225 85.6973C63.0225 86.0532 63.0741 86.3653 63.1774 86.6333C63.2807 86.9014 63.4301 87.1112 63.6257 87.2628C63.8212 87.4122 64.0607 87.4869 64.3442 87.4869C64.6386 87.4869 64.8847 87.4089 65.0824 87.2529C65.2802 87.0947 65.4296 86.8805 65.5307 86.6102C65.6339 86.34 65.6856 86.0357 65.6856 85.6973C65.6856 85.3633 65.635 85.0634 65.534 84.7975C65.4351 84.5317 65.2857 84.3218 65.0857 84.168C64.888 84.0142 64.6408 83.9373 64.3442 83.9373C64.0585 83.9373 63.8168 84.0109 63.6191 84.1581C63.4235 84.3053 63.2752 84.5108 63.1741 84.7744C63.073 85.0381 63.0225 85.3457 63.0225 85.6973ZM69.6909 88.3307C69.1922 88.3307 68.7626 88.2241 68.4023 88.011C68.0441 87.7957 67.7673 87.4935 67.5717 87.1046C67.3783 86.7135 67.2817 86.2554 67.2817 85.7302C67.2817 85.2117 67.3783 84.7547 67.5717 84.3592C67.7673 83.9637 68.0397 83.655 68.3891 83.433C68.7406 83.2111 69.1515 83.1001 69.6217 83.1001C69.9074 83.1001 70.1842 83.1474 70.4523 83.2419C70.7203 83.3364 70.9609 83.4847 71.1741 83.6868C71.3872 83.889 71.5553 84.1515 71.6783 84.4745C71.8014 84.7953 71.8629 85.1853 71.8629 85.6446V85.9939H67.8387V85.2556H70.8972C70.8972 84.9964 70.8445 84.7668 70.739 84.5668C70.6336 84.3647 70.4852 84.2054 70.2941 84.0889C70.1051 83.9725 69.8832 83.9142 69.6283 83.9142C69.3515 83.9142 69.1098 83.9823 68.9032 84.1186C68.6989 84.2526 68.5407 84.4284 68.4286 84.6459C68.3188 84.8612 68.2638 85.0952 68.2638 85.3479V85.9247C68.2638 86.2631 68.3232 86.5509 68.4418 86.7882C68.5627 87.0255 68.7307 87.2068 68.9461 87.332C69.1614 87.4551 69.413 87.5166 69.7008 87.5166C69.8876 87.5166 70.0579 87.4902 70.2117 87.4375C70.3655 87.3826 70.4984 87.3013 70.6105 87.1936C70.7225 87.0859 70.8082 86.953 70.8676 86.7948L71.8003 86.9629C71.7256 87.2376 71.5916 87.4782 71.3982 87.6847C71.207 87.889 70.9664 88.0483 70.6764 88.1626C70.3886 88.2747 70.0601 88.3307 69.6909 88.3307ZM74.1511 88.3406C73.8303 88.3406 73.5403 88.2812 73.281 88.1626C73.0218 88.0417 72.8163 87.8671 72.6647 87.6386C72.5153 87.41 72.4406 87.1299 72.4406 86.7981C72.4406 86.5125 72.4955 86.2774 72.6054 86.0928C72.7152 85.9082 72.8636 85.7621 73.0503 85.6544C73.2371 85.5468 73.4458 85.4655 73.6765 85.4105C73.9072 85.3556 74.1423 85.3139 74.3818 85.2853C74.6851 85.2502 74.9312 85.2216 75.1201 85.1996C75.3091 85.1754 75.4464 85.137 75.5321 85.0843C75.6178 85.0315 75.6606 84.9458 75.6606 84.8272V84.8041C75.6606 84.5163 75.5793 84.2933 75.4167 84.135C75.2564 83.9768 75.0169 83.8977 74.6983 83.8977C74.3665 83.8977 74.105 83.9714 73.9138 84.1186C73.7249 84.2636 73.5941 84.4251 73.5216 84.6031L72.5955 84.3921C72.7053 84.0845 72.8657 83.8362 73.0767 83.6473C73.2898 83.4561 73.5348 83.3177 73.8117 83.232C74.0885 83.1441 74.3796 83.1001 74.6851 83.1001C74.8872 83.1001 75.1014 83.1243 75.3278 83.1727C75.5563 83.2188 75.7694 83.3045 75.9672 83.4297C76.1671 83.555 76.3308 83.7341 76.4582 83.967C76.5857 84.1977 76.6494 84.4976 76.6494 84.8667V88.2285H75.687V87.5364H75.6475C75.5837 87.6638 75.4882 87.7891 75.3607 87.9121C75.2333 88.0352 75.0696 88.1373 74.8696 88.2186C74.6697 88.2999 74.4302 88.3406 74.1511 88.3406ZM74.3654 87.5496C74.6378 87.5496 74.8707 87.4957 75.0641 87.3881C75.2596 87.2804 75.408 87.1398 75.509 86.9662C75.6123 86.7904 75.6639 86.6026 75.6639 86.4026V85.75C75.6288 85.7852 75.5607 85.8181 75.4596 85.8489C75.3607 85.8775 75.2476 85.9027 75.1201 85.9247C74.9927 85.9445 74.8685 85.9632 74.7477 85.9807C74.6268 85.9961 74.5258 86.0093 74.4445 86.0203C74.2533 86.0445 74.0786 86.0851 73.9204 86.1422C73.7644 86.1994 73.6392 86.2818 73.5447 86.3894C73.4524 86.4949 73.4063 86.6355 73.4063 86.8113C73.4063 87.0552 73.4964 87.2398 73.6765 87.365C73.8567 87.488 74.0863 87.5496 74.3654 87.5496ZM80.0467 83.1661V83.9571H77.2814V83.1661H80.0467ZM78.023 81.9532H79.0085V86.7421C79.0085 86.9332 79.037 87.0772 79.0942 87.1738C79.1513 87.2683 79.2249 87.3331 79.315 87.3683C79.4073 87.4013 79.5073 87.4177 79.6149 87.4177C79.694 87.4177 79.7632 87.4122 79.8226 87.4013C79.8819 87.3903 79.928 87.3815 79.961 87.3749L80.139 88.189C80.0818 88.2109 80.0005 88.2329 79.8951 88.2549C79.7896 88.2791 79.6578 88.2922 79.4996 88.2944C79.2403 88.2988 78.9986 88.2527 78.7745 88.156C78.5504 88.0593 78.3691 87.9099 78.2307 87.7078C78.0922 87.5056 78.023 87.2518 78.023 86.9464V81.9532ZM85.218 88.3307C84.7193 88.3307 84.2897 88.2241 83.9293 88.011C83.5712 87.7957 83.2943 87.4935 83.0988 87.1046C82.9054 86.7135 82.8087 86.2554 82.8087 85.7302C82.8087 85.2117 82.9054 84.7547 83.0988 84.3592C83.2943 83.9637 83.5668 83.655 83.9162 83.433C84.2677 83.2111 84.6786 83.1001 85.1488 83.1001C85.4345 83.1001 85.7113 83.1474 85.9794 83.2419C86.2474 83.3364 86.488 83.4847 86.7012 83.6868C86.9143 83.889 87.0824 84.1515 87.2054 84.4745C87.3285 84.7953 87.39 85.1853 87.39 85.6446V85.9939H83.3658V85.2556H86.4243C86.4243 84.9964 86.3716 84.7668 86.2661 84.5668C86.1606 84.3647 86.0123 84.2054 85.8212 84.0889C85.6322 83.9725 85.4103 83.9142 85.1554 83.9142C84.8786 83.9142 84.6369 83.9823 84.4303 84.1186C84.226 84.2526 84.0678 84.4284 83.9557 84.6459C83.8458 84.8612 83.7909 85.0952 83.7909 85.3479V85.9247C83.7909 86.2631 83.8502 86.5509 83.9689 86.7882C84.0897 87.0255 84.2578 87.2068 84.4732 87.332C84.6885 87.4551 84.9401 87.5166 85.2279 87.5166C85.4147 87.5166 85.585 87.4902 85.7388 87.4375C85.8926 87.3826 86.0255 87.3013 86.1376 87.1936C86.2496 87.0859 86.3353 86.953 86.3947 86.7948L87.3274 86.9629C87.2527 87.2376 87.1186 87.4782 86.9253 87.6847C86.7341 87.889 86.4935 88.0483 86.2035 88.1626C85.9157 88.2747 85.5872 88.3307 85.218 88.3307ZM88.865 83.1661L89.9823 85.137L91.1095 83.1661H92.1872L90.6085 85.6973L92.2004 88.2285H91.1226L89.9823 86.3367L88.8452 88.2285H87.7642L89.3396 85.6973L87.7839 83.1661H88.865ZM92.9206 90.1269V83.1661H93.883V83.9867H93.9654C94.0225 83.8813 94.1049 83.7593 94.2126 83.6209C94.3202 83.4825 94.4697 83.3616 94.6608 83.2583C94.852 83.1529 95.1047 83.1001 95.4189 83.1001C95.8276 83.1001 96.1923 83.2034 96.5131 83.41C96.8339 83.6165 97.0855 83.9142 97.2678 84.3031C97.4524 84.6921 97.5447 85.1601 97.5447 85.7072C97.5447 86.2543 97.4535 86.7234 97.2711 87.1145C97.0888 87.5034 96.8383 87.8033 96.5197 88.0143C96.2011 88.223 95.8374 88.3274 95.4288 88.3274C95.1211 88.3274 94.8696 88.2758 94.674 88.1725C94.4806 88.0692 94.329 87.9484 94.2192 87.8099C94.1093 87.6715 94.0247 87.5485 93.9654 87.4408H93.9061V90.1269H92.9206ZM93.8863 85.6973C93.8863 86.0532 93.9379 86.3653 94.0412 86.6333C94.1445 86.9014 94.2939 87.1112 94.4894 87.2628C94.685 87.4122 94.9245 87.4869 95.2079 87.4869C95.5024 87.4869 95.7485 87.4089 95.9462 87.2529C96.144 87.0947 96.2934 86.8805 96.3944 86.6102C96.4977 86.34 96.5493 86.0357 96.5493 85.6973C96.5493 85.3633 96.4988 85.0634 96.3977 84.7975C96.2989 84.5317 96.1494 84.3218 95.9495 84.168C95.7517 84.0142 95.5046 83.9373 95.2079 83.9373C94.9223 83.9373 94.6806 84.0109 94.4828 84.1581C94.2873 84.3053 94.139 84.5108 94.0379 84.7744C93.9368 85.0381 93.8863 85.3457 93.8863 85.6973ZM100.552 88.3307C100.053 88.3307 99.6239 88.2241 99.2636 88.011C98.9054 87.7957 98.6286 87.4935 98.433 87.1046C98.2396 86.7135 98.143 86.2554 98.143 85.7302C98.143 85.2117 98.2396 84.7547 98.433 84.3592C98.6286 83.9637 98.901 83.655 99.2504 83.433C99.6019 83.2111 100.013 83.1001 100.483 83.1001C100.769 83.1001 101.046 83.1474 101.314 83.2419C101.582 83.3364 101.822 83.4847 102.035 83.6868C102.249 83.889 102.417 84.1515 102.54 84.4745C102.663 84.7953 102.724 85.1853 102.724 85.6446V85.9939H98.7V85.2556H101.759C101.759 84.9964 101.706 84.7668 101.6 84.5668C101.495 84.3647 101.347 84.2054 101.155 84.0889C100.966 83.9725 100.745 83.9142 100.49 83.9142C100.213 83.9142 99.9711 83.9823 99.7645 84.1186C99.5602 84.2526 99.402 84.4284 99.2899 84.6459C99.1801 84.8612 99.1251 85.0952 99.1251 85.3479V85.9247C99.1251 86.2631 99.1845 86.5509 99.3031 86.7882C99.424 87.0255 99.592 87.2068 99.8074 87.332C100.023 87.4551 100.274 87.5166 100.562 87.5166C100.749 87.5166 100.919 87.4902 101.073 87.4375C101.227 87.3826 101.36 87.3013 101.472 87.1936C101.584 87.0859 101.67 86.953 101.729 86.7948L102.662 86.9629C102.587 87.2376 102.453 87.4782 102.26 87.6847C102.068 87.889 101.828 88.0483 101.538 88.1626C101.25 88.2747 100.921 88.3307 100.552 88.3307ZM103.539 88.2285V83.1661H104.492V83.9703H104.544C104.637 83.6978 104.799 83.4836 105.032 83.3276C105.267 83.1694 105.533 83.0903 105.83 83.0903C105.891 83.0903 105.964 83.0925 106.047 83.0969C106.133 83.1012 106.2 83.1067 106.248 83.1133V84.0559C106.209 84.045 106.139 84.0329 106.037 84.0197C105.936 84.0043 105.835 83.9966 105.734 83.9966C105.501 83.9966 105.294 84.0461 105.111 84.1449C104.931 84.2416 104.788 84.3767 104.683 84.5503C104.577 84.7217 104.525 84.9173 104.525 85.137V88.2285H103.539ZM106.823 88.2285V83.1661H107.808V88.2285H106.823ZM107.32 82.3849C107.149 82.3849 107.002 82.3278 106.879 82.2136C106.758 82.0971 106.698 81.9587 106.698 81.7983C106.698 81.6357 106.758 81.4973 106.879 81.383C107.002 81.2665 107.149 81.2083 107.32 81.2083C107.492 81.2083 107.638 81.2665 107.759 81.383C107.882 81.4973 107.943 81.6357 107.943 81.7983C107.943 81.9587 107.882 82.0971 107.759 82.2136C107.638 82.3278 107.492 82.3849 107.32 82.3849ZM111.037 88.3307C110.539 88.3307 110.109 88.2241 109.749 88.011C109.391 87.7957 109.114 87.4935 108.918 87.1046C108.725 86.7135 108.628 86.2554 108.628 85.7302C108.628 85.2117 108.725 84.7547 108.918 84.3592C109.114 83.9637 109.386 83.655 109.736 83.433C110.087 83.2111 110.498 83.1001 110.968 83.1001C111.254 83.1001 111.531 83.1474 111.799 83.2419C112.067 83.3364 112.307 83.4847 112.521 83.6868C112.734 83.889 112.902 84.1515 113.025 84.4745C113.148 84.7953 113.209 85.1853 113.209 85.6446V85.9939H109.185V85.2556H112.244C112.244 84.9964 112.191 84.7668 112.086 84.5668C111.98 84.3647 111.832 84.2054 111.641 84.0889C111.452 83.9725 111.23 83.9142 110.975 83.9142C110.698 83.9142 110.456 83.9823 110.25 84.1186C110.045 84.2526 109.887 84.4284 109.775 84.6459C109.665 84.8612 109.61 85.0952 109.61 85.3479V85.9247C109.61 86.2631 109.67 86.5509 109.788 86.7882C109.909 87.0255 110.077 87.2068 110.293 87.332C110.508 87.4551 110.759 87.5166 111.047 87.5166C111.234 87.5166 111.404 87.4902 111.558 87.4375C111.712 87.3826 111.845 87.3013 111.957 87.1936C112.069 87.0859 112.155 86.953 112.214 86.7948L113.147 86.9629C113.072 87.2376 112.938 87.4782 112.745 87.6847C112.554 87.889 112.313 88.0483 112.023 88.1626C111.735 88.2747 111.407 88.3307 111.037 88.3307ZM115.01 85.2227V88.2285H114.024V83.1661H114.97V83.99H115.033C115.149 83.722 115.332 83.5066 115.58 83.344C115.83 83.1814 116.146 83.1001 116.526 83.1001C116.871 83.1001 117.173 83.1727 117.432 83.3177C117.692 83.4605 117.893 83.6736 118.035 83.9571C118.178 84.2405 118.25 84.591 118.25 85.0085V88.2285H117.264V85.1271C117.264 84.7602 117.169 84.4734 116.977 84.2669C116.786 84.0581 116.524 83.9538 116.19 83.9538C115.961 83.9538 115.758 84.0032 115.58 84.1021C115.404 84.201 115.265 84.346 115.161 84.5371C115.06 84.7261 115.01 84.9546 115.01 85.2227ZM121.425 88.3307C120.935 88.3307 120.513 88.2197 120.16 87.9978C119.808 87.7737 119.538 87.465 119.349 87.0717C119.16 86.6784 119.065 86.2279 119.065 85.7204C119.065 85.2062 119.162 84.7525 119.355 84.3592C119.549 83.9637 119.821 83.655 120.173 83.433C120.524 83.2111 120.939 83.1001 121.415 83.1001C121.8 83.1001 122.143 83.1716 122.444 83.3144C122.745 83.455 122.988 83.6528 123.172 83.9076C123.359 84.1625 123.47 84.4602 123.505 84.8008H122.546C122.493 84.5635 122.372 84.3592 122.183 84.1878C121.997 84.0164 121.746 83.9307 121.432 83.9307C121.157 83.9307 120.917 84.0032 120.71 84.1482C120.506 84.2911 120.346 84.4954 120.232 84.7613C120.118 85.0249 120.061 85.3369 120.061 85.6973C120.061 86.0664 120.117 86.385 120.229 86.6531C120.341 86.9212 120.499 87.1288 120.704 87.276C120.91 87.4232 121.153 87.4968 121.432 87.4968C121.619 87.4968 121.788 87.4628 121.939 87.3947C122.093 87.3243 122.222 87.2244 122.325 87.0947C122.431 86.9651 122.504 86.8091 122.546 86.6267H123.505C123.47 86.9541 123.363 87.2463 123.185 87.5034C123.007 87.7605 122.769 87.9626 122.47 88.1099C122.173 88.2571 121.825 88.3307 121.425 88.3307ZM126.462 88.3307C125.963 88.3307 125.534 88.2241 125.174 88.011C124.815 87.7957 124.539 87.4935 124.343 87.1046C124.15 86.7135 124.053 86.2554 124.053 85.7302C124.053 85.2117 124.15 84.7547 124.343 84.3592C124.539 83.9637 124.811 83.655 125.16 83.433C125.512 83.2111 125.923 83.1001 126.393 83.1001C126.679 83.1001 126.956 83.1474 127.224 83.2419C127.492 83.3364 127.732 83.4847 127.945 83.6868C128.159 83.889 128.327 84.1515 128.45 84.4745C128.573 84.7953 128.634 85.1853 128.634 85.6446V85.9939H124.61V85.2556H127.669C127.669 84.9964 127.616 84.7668 127.51 84.5668C127.405 84.3647 127.257 84.2054 127.065 84.0889C126.876 83.9725 126.655 83.9142 126.4 83.9142C126.123 83.9142 125.881 83.9823 125.675 84.1186C125.47 84.2526 125.312 84.4284 125.2 84.6459C125.09 84.8612 125.035 85.0952 125.035 85.3479V85.9247C125.035 86.2631 125.094 86.5509 125.213 86.7882C125.334 87.0255 125.502 87.2068 125.717 87.332C125.933 87.4551 126.184 87.5166 126.472 87.5166C126.659 87.5166 126.829 87.4902 126.983 87.4375C127.137 87.3826 127.27 87.3013 127.382 87.1936C127.494 87.0859 127.58 86.953 127.639 86.7948L128.572 86.9629C128.497 87.2376 128.363 87.4782 128.17 87.6847C127.978 87.889 127.738 88.0483 127.448 88.1626C127.16 88.2747 126.831 88.3307 126.462 88.3307ZM133.243 84.402L132.35 84.5602C132.312 84.446 132.253 84.3372 132.172 84.2339C132.092 84.1307 131.985 84.0461 131.849 83.9801C131.712 83.9142 131.542 83.8813 131.338 83.8813C131.059 83.8813 130.826 83.9439 130.639 84.0691C130.452 84.1922 130.359 84.3515 130.359 84.547C130.359 84.7162 130.421 84.8524 130.547 84.9557C130.672 85.059 130.874 85.1436 131.153 85.2095L131.957 85.3941C132.423 85.5017 132.77 85.6676 132.999 85.8917C133.227 86.1159 133.342 86.407 133.342 86.7652C133.342 87.0684 133.254 87.3386 133.078 87.5759C132.904 87.811 132.662 87.9956 132.35 88.1296C132.04 88.2637 131.681 88.3307 131.272 88.3307C130.705 88.3307 130.242 88.2098 129.884 87.9681C129.526 87.7242 129.306 87.3782 129.225 86.9299L130.178 86.7849C130.237 87.0332 130.359 87.2211 130.543 87.3485C130.728 87.4738 130.969 87.5364 131.265 87.5364C131.588 87.5364 131.846 87.4694 132.04 87.3353C132.233 87.1991 132.33 87.0332 132.33 86.8377C132.33 86.6795 132.27 86.5465 132.152 86.4389C132.035 86.3312 131.856 86.2499 131.615 86.195L130.758 86.0071C130.285 85.8994 129.936 85.7281 129.71 85.4929C129.485 85.2578 129.373 84.9601 129.373 84.5998C129.373 84.3009 129.457 84.0395 129.624 83.8154C129.791 83.5912 130.022 83.4166 130.316 83.2913C130.61 83.1639 130.948 83.1001 131.328 83.1001C131.875 83.1001 132.306 83.2188 132.62 83.4561C132.934 83.6912 133.142 84.0065 133.243 84.402ZM136.325 88.2285V83.1661H137.31V88.2285H136.325ZM136.822 82.3849C136.651 82.3849 136.504 82.3278 136.381 82.2136C136.26 82.0971 136.199 81.9587 136.199 81.7983C136.199 81.6357 136.26 81.4973 136.381 81.383C136.504 81.2665 136.651 81.2083 136.822 81.2083C136.994 81.2083 137.14 81.2665 137.261 81.383C137.384 81.4973 137.445 81.6357 137.445 81.7983C137.445 81.9587 137.384 82.0971 137.261 82.2136C137.14 82.3278 136.994 82.3849 136.822 82.3849ZM139.343 85.2227V88.2285H138.357V83.1661H139.303V83.99H139.366C139.482 83.722 139.665 83.5066 139.913 83.344C140.163 83.1814 140.479 83.1001 140.859 83.1001C141.204 83.1001 141.506 83.1727 141.765 83.3177C142.025 83.4605 142.226 83.6736 142.368 83.9571C142.511 84.2405 142.583 84.591 142.583 85.0085V88.2285H141.597V85.1271C141.597 84.7602 141.502 84.4734 141.31 84.2669C141.119 84.0581 140.857 83.9538 140.523 83.9538C140.294 83.9538 140.091 84.0032 139.913 84.1021C139.737 84.201 139.598 84.346 139.494 84.5371C139.393 84.7261 139.343 84.9546 139.343 85.2227ZM146.427 90.1269C146.279 90.1269 146.145 90.1148 146.024 90.0907C145.904 90.0687 145.814 90.0445 145.754 90.0182L145.991 89.2107C146.172 89.259 146.332 89.2799 146.473 89.2733C146.613 89.2667 146.737 89.214 146.845 89.1151C146.955 89.0162 147.052 88.8547 147.135 88.6306L147.257 88.2944L145.405 83.1661H146.46L147.742 87.0947H147.794L149.076 83.1661H150.134L148.048 88.9042C147.951 89.1678 147.828 89.3909 147.679 89.5732C147.53 89.7578 147.352 89.8962 147.145 89.9885C146.939 90.0808 146.699 90.1269 146.427 90.1269ZM152.742 88.3307C152.268 88.3307 151.854 88.2219 151.5 88.0044C151.146 87.7869 150.871 87.4826 150.676 87.0914C150.48 86.7003 150.382 86.2433 150.382 85.7204C150.382 85.1952 150.48 84.736 150.676 84.3427C150.871 83.9494 151.146 83.644 151.5 83.4264C151.854 83.2089 152.268 83.1001 152.742 83.1001C153.217 83.1001 153.631 83.2089 153.985 83.4264C154.339 83.644 154.613 83.9494 154.809 84.3427C155.004 84.736 155.102 85.1952 155.102 85.7204C155.102 86.2433 155.004 86.7003 154.809 87.0914C154.613 87.4826 154.339 87.7869 153.985 88.0044C153.631 88.2219 153.217 88.3307 152.742 88.3307ZM152.746 87.5034C153.053 87.5034 153.308 87.4221 153.51 87.2595C153.712 87.0969 153.862 86.8805 153.958 86.6102C154.057 86.34 154.107 86.0423 154.107 85.7171C154.107 85.3941 154.057 85.0974 153.958 84.8272C153.862 84.5547 153.712 84.3361 153.51 84.1713C153.308 84.0065 153.053 83.9241 152.746 83.9241C152.436 83.9241 152.179 84.0065 151.974 84.1713C151.772 84.3361 151.622 84.5547 151.523 84.8272C151.426 85.0974 151.378 85.3941 151.378 85.7171C151.378 86.0423 151.426 86.34 151.523 86.6102C151.622 86.8805 151.772 87.0969 151.974 87.2595C152.179 87.4221 152.436 87.5034 152.746 87.5034ZM159.131 86.129V83.1661H160.119V88.2285H159.15V87.3518H159.098C158.981 87.6221 158.794 87.8473 158.537 88.0275C158.282 88.2054 157.965 88.2944 157.585 88.2944C157.26 88.2944 156.972 88.223 156.721 88.0802C156.473 87.9352 156.277 87.721 156.135 87.4375C155.994 87.1541 155.924 86.8036 155.924 86.3861V83.1661H156.909V86.2675C156.909 86.6124 157.005 86.8871 157.196 87.0914C157.387 87.2958 157.635 87.398 157.941 87.398C158.125 87.398 158.309 87.3518 158.491 87.2595C158.676 87.1672 158.828 87.0277 158.949 86.841C159.072 86.6542 159.133 86.4169 159.131 86.129ZM161.165 88.2285V83.1661H162.118V83.9703H162.17C162.263 83.6978 162.425 83.4836 162.658 83.3276C162.893 83.1694 163.159 83.0903 163.456 83.0903C163.517 83.0903 163.59 83.0925 163.673 83.0969C163.759 83.1012 163.826 83.1067 163.874 83.1133V84.0559C163.835 84.045 163.764 84.0329 163.663 84.0197C163.562 84.0043 163.461 83.9966 163.36 83.9966C163.127 83.9966 162.92 84.0461 162.737 84.1449C162.557 84.2416 162.414 84.3767 162.309 84.5503C162.203 84.7217 162.15 84.9173 162.15 85.137V88.2285H161.165ZM168.759 88.3307C168.269 88.3307 167.847 88.2197 167.493 87.9978C167.142 87.7737 166.871 87.465 166.682 87.0717C166.493 86.6784 166.399 86.2279 166.399 85.7204C166.399 85.2062 166.496 84.7525 166.689 84.3592C166.882 83.9637 167.155 83.655 167.506 83.433C167.858 83.2111 168.272 83.1001 168.749 83.1001C169.133 83.1001 169.476 83.1716 169.777 83.3144C170.078 83.455 170.321 83.6528 170.506 83.9076C170.692 84.1625 170.803 84.4602 170.839 84.8008H169.879C169.827 84.5635 169.706 84.3592 169.517 84.1878C169.33 84.0164 169.08 83.9307 168.765 83.9307C168.491 83.9307 168.25 84.0032 168.044 84.1482C167.839 84.2911 167.68 84.4954 167.566 84.7613C167.451 85.0249 167.394 85.3369 167.394 85.6973C167.394 86.0664 167.45 86.385 167.562 86.6531C167.675 86.9212 167.833 87.1288 168.037 87.276C168.244 87.4232 168.486 87.4968 168.765 87.4968C168.952 87.4968 169.121 87.4628 169.273 87.3947C169.427 87.3243 169.555 87.2244 169.659 87.0947C169.764 86.9651 169.838 86.8091 169.879 86.6267H170.839C170.803 86.9541 170.697 87.2463 170.519 87.5034C170.341 87.7605 170.102 87.9626 169.804 88.1099C169.507 88.2571 169.159 88.3307 168.759 88.3307ZM171.614 88.2285V83.1661H172.599V88.2285H171.614ZM172.112 82.3849C171.94 82.3849 171.793 82.3278 171.67 82.2136C171.549 82.0971 171.489 81.9587 171.489 81.7983C171.489 81.6357 171.549 81.4973 171.67 81.383C171.793 81.2665 171.94 81.2083 172.112 81.2083C172.283 81.2083 172.429 81.2665 172.55 81.383C172.673 81.4973 172.735 81.6357 172.735 81.7983C172.735 81.9587 172.673 82.0971 172.55 82.2136C172.429 82.3278 172.283 82.3849 172.112 82.3849ZM176.01 83.1661V83.9571H173.245V83.1661H176.01ZM173.986 81.9532H174.972V86.7421C174.972 86.9332 175 87.0772 175.057 87.1738C175.115 87.2683 175.188 87.3331 175.278 87.3683C175.37 87.4013 175.47 87.4177 175.578 87.4177C175.657 87.4177 175.726 87.4122 175.786 87.4013C175.845 87.3903 175.891 87.3815 175.924 87.3749L176.102 88.189C176.045 88.2109 175.964 88.2329 175.858 88.2549C175.753 88.2791 175.621 88.2922 175.463 88.2944C175.204 88.2988 174.962 88.2527 174.738 88.156C174.514 88.0593 174.332 87.9099 174.194 87.7078C174.055 87.5056 173.986 87.2518 173.986 86.9464V81.9532ZM177.444 90.1269C177.297 90.1269 177.163 90.1148 177.042 90.0907C176.922 90.0687 176.831 90.0445 176.772 90.0182L177.009 89.2107C177.19 89.259 177.35 89.2799 177.491 89.2733C177.631 89.2667 177.755 89.214 177.863 89.1151C177.973 89.0162 178.07 88.8547 178.153 88.6306L178.275 88.2944L176.423 83.1661H177.477L178.76 87.0947H178.812L180.094 83.1661H181.152L179.066 88.9042C178.969 89.1678 178.846 89.3909 178.697 89.5732C178.547 89.7578 178.37 89.8962 178.163 89.9885C177.956 90.0808 177.717 90.1269 177.444 90.1269Z" fill="black" fill-opacity="0.4"/>
<defs>
<clipPath id="clip0_3759_32610">
<rect width="191.021" height="73.6128" fill="white" transform="translate(0.150391 0.847656)"/>
</clipPath>
</defs>
</svg>
